Coordinates
version=1
nRows=14
nColumns=40
inDegrees=yes

Units are S.I. units (second, meters, Newtons, ...)
If the header above contains a line with 'inDegrees', this indicates whether rotational values are in degrees (yes) or radians (no).

endheader
time	pelvis_tilt	pelvis_list	pelvis_rotation	pelvis_tx	pelvis_ty	pelvis_tz	hip_flexion_r	hip_adduction_r	hip_rotation_r	knee_angle_r	knee_angle_r_beta	ankle_angle_r	subtalar_angle_r	mtp_angle_r	hip_flexion_l	hip_adduction_l	hip_rotation_l	knee_angle_l	knee_angle_l_beta	ankle_angle_l	subtalar_angle_l	mtp_angle_l	lumbar_extension	lumbar_bending	lumbar_rotation	arm_flex_r	arm_add_r	arm_rot_r	elbow_flex_r	pro_sup_r	wrist_flex_r	wrist_dev_r	arm_flex_l	arm_add_l	arm_rot_l	elbow_flex_l	pro_sup_l	wrist_flex_l	wrist_dev_l
      7.78333333	    -31.78802840	     -4.60558580	      2.17883762	     -0.30572141	      1.19449698	      0.04601465	     94.94812252	     -5.41738192	      0.73138483	     82.14483523	      1.43369784	     -3.66549158	    -28.89831720	      0.00000000	     65.12697526	     -8.12380518	      5.38320552	     59.34372560	      1.03574340	     -8.45714721	    -12.88884600	      0.00000000	    -45.03385063	     10.59568082	      1.89419718	     89.90271785	     -6.11980478	     13.90685996	     35.84174678	     86.99332093	      0.00000000	      0.00000000	     89.90542640	     -9.99080587	     25.19141523	     25.99809675	     74.63150652	      0.00000000	      0.00000000
      7.79166667	    -31.59439121	     -4.24192791	      2.57178163	     -0.30574164	      1.19456766	      0.04564614	     93.73113377	     -5.77269722	      0.92694436	     79.81053291	      1.39295658	     -4.09039419	    -28.85545903	      0.00000000	     65.98722798	     -7.73701919	      5.24285522	     62.03949252	      1.08279341	     -8.24461730	    -12.75536961	      0.00000000	    -45.14872933	     10.43911396	      1.31858998	     89.90111238	     -6.17006140	     13.91727430	     35.81557852	     86.98623161	      0.00000000	      0.00000000	     89.90662678	    -10.02284150	     25.14631928	     26.24318123	     74.67787620	      0.00000000	      0.00000000
      7.80000000	    -31.58503480	     -4.76893623	      2.86190048	     -0.30600423	      1.19448628	      0.04606891	     92.39077280	     -5.88231440	      0.14327261	     77.14658273	      1.34646188	     -5.27823546	    -29.82602234	      0.00000000	     67.33082115	     -7.96516602	      5.88341678	     64.84876354	      1.13182444	     -7.25618519	    -11.96891023	      0.00000000	    -45.15297010	     10.90314345	      1.46882548	     89.90036768	     -6.25988642	     13.99260069	     35.72671767	     86.93355252	      0.00000000	      0.00000000	     89.90780592	    -10.00549283	     25.09278587	     26.41415847	     75.02389085	      0.00000000	      0.00000000
      7.80833333	    -31.43007270	     -4.31457726	      3.26811419	     -0.30615551	      1.19446627	      0.04555823	     91.03694738	     -6.25682349	      0.42121187	     74.66461306	      1.30314333	     -5.85413343	    -29.64019395	      0.00000000	     68.27439682	     -7.42661307	      5.77635635	     67.52221846	      1.17848503	     -6.78362851	    -12.01092491	      0.00000000	    -45.21540645	     10.69542022	      0.78931920	     89.89836691	     -6.26086394	     13.97886852	     35.69191465	     86.91909894	      0.00000000	      0.00000000	     89.91009841	    -10.06274057	     25.01466405	     26.65839091	     75.05429737	      0.00000000	      0.00000000
      7.81666667	    -31.24140814	     -4.42917291	      3.74922668	     -0.30615160	      1.19439473	      0.04537650	     89.45345683	     -6.63476998	     -0.00205245	     72.04249354	      1.25737871	     -6.99637042	    -30.15721515	      0.00000000	     69.40462088	     -7.13252030	      6.25060901	     70.27126579	      1.22646496	     -6.00558376	    -11.74522775	      0.00000000	    -45.33611263	     10.96130258	      0.54582234	     89.89620385	     -6.34714148	     13.94663500	     35.60815131	     86.85093578	      0.00000000	      0.00000000	     89.91183622	    -10.02307031	     25.02814388	     26.84124859	     75.30136560	      0.00000000	      0.00000000
      7.82500000	    -31.09081084	     -4.46552940	      4.19357706	     -0.30622821	      1.19431865	      0.04526589	     87.81055720	     -6.93060659	     -0.35702748	     69.35157446	      1.21041332	     -8.09132191	    -30.74458601	      0.00000000	     70.56244989	     -6.83149872	      6.60404641	     72.93712332	      1.27299295	     -5.42220356	    -11.42937133	      0.00000000	    -45.41805468	     11.13916484	      0.21681755	     89.89601432	     -6.35751732	     13.94032524	     35.49196015	     86.81618456	      0.00000000	      0.00000000	     89.91259838	    -10.03894032	     24.89642316	     27.03550765	     75.54679241	      0.00000000	      0.00000000
      7.83333333	    -30.83495901	     -3.96050714	      4.60928901	     -0.30603267	      1.19422725	      0.04467599	     86.15226751	     -7.42045359	     -0.27658649	     66.75435065	      1.16508321	     -8.93376322	    -30.43637143	      0.00000000	     71.51567491	     -6.23831529	      6.43766967	     75.57447815	      1.31902347	     -4.95528355	    -11.56148676	      0.00000000	    -45.56387053	     10.89662876	     -0.49630509	     89.89309765	     -6.32795112	     13.95122527	     35.32261426	     86.80464324	      0.00000000	      0.00000000	     89.91463504	    -10.08033857	     24.88506574	     27.17694635	     75.58497996	      0.00000000	      0.00000000
      7.84166667	    -30.57508213	     -4.17476351	      4.99942349	     -0.30584022	      1.19421218	      0.04464502	     84.26778197	     -7.67116798	     -0.99293789	     64.02539428	      1.11745394	    -10.48584083	    -31.14426300	      0.00000000	     72.70365572	     -6.00529641	      6.98521042	     78.27082881	      1.36608367	     -4.46106031	    -11.29065886	      0.00000000	    -45.77950860	     11.16456157	     -0.56284043	     89.89049928	     -6.43348194	     13.84992695	     35.27417640	     86.75263332	      0.00000000	      0.00000000	     89.91555426	    -10.00115502	     24.82655657	     27.39439514	     75.85343789	      0.00000000	      0.00000000
      7.85000000	    -30.35980942	     -3.63844718	      5.46180097	     -0.30563372	      1.19416002	      0.04402227	     82.51760387	     -8.19741151	     -0.92199019	     61.41700557	      1.07192896	    -11.37143436	    -30.80656750	      0.00000000	     73.71386591	     -5.33696739	      6.80174104	     80.74360898	      1.40924183	     -4.08576526	    -11.26986542	      0.00000000	    -45.88584860	     10.92650003	     -1.32446336	     89.88797008	     -6.39878648	     13.85340459	     35.06330626	     86.74032893	      0.00000000	      0.00000000	     89.91742243	    -10.03995513	     24.85355909	     27.50124304	     75.89361398	      0.00000000	      0.00000000
      7.85833333	    -30.03707479	     -3.86295993	      5.98823083	     -0.30530156	      1.19422453	      0.04383178	     80.50138255	     -8.55873732	     -1.81439779	     58.72131321	      1.02488026	    -13.38826189	    -31.66279524	      0.00000000	     74.89055848	     -4.95329569	      7.34866465	     83.30428458	      1.45393405	     -3.50318412	    -11.32985661	      0.00000000	    -46.15181168	     11.31285458	     -1.50895351	     89.88523934	     -6.40999186	     13.65856165	     34.99192090	     86.70015572	      0.00000000	      0.00000000	     89.91781196	    -10.05651637	     24.88156161	     27.75921632	     76.11346561	      0.00000000	      0.00000000
      7.86666667	    -29.80608941	     -3.27819898	      6.42301135	     -0.30490204	      1.19415270	      0.04305663	     78.70959351	     -9.18191454	     -1.95489043	     56.18732168	      0.98065376	    -14.46471894	    -31.20854286	      0.00000000	     75.89887474	     -4.32739406	      6.95766912	     85.65595750	      1.49497848	     -3.23917700	    -11.23523025	      0.00000000	    -46.27394784	     11.04299318	     -2.27822200	     89.88248409	     -6.38058846	     13.67305085	     34.74729884	     86.68953841	      0.00000000	      0.00000000	     89.91944249	    -10.08194141	     24.95774490	     27.82126677	     76.15026822	      0.00000000	      0.00000000
      7.87500000	    -29.43354781	     -3.00592245	      6.93704932	     -0.30443078	      1.19438788	      0.04241150	     76.69785312	     -9.75258730	     -2.55079124	     53.63734558	      0.93614828	    -16.43176770	    -31.14353432	      0.00000000	     76.88194845	     -3.70744387	      7.00878027	     87.96056673	      1.53520150	     -2.81626985	    -11.09562398	      0.00000000	    -46.59338656	     11.07956263	     -2.84903113	     89.87850276	     -6.35040086	     13.47363451	     34.69853235	     86.63971516	      0.00000000	      0.00000000	     89.91990516	    -10.19850843	     25.09758247	     28.21342546	     76.23216820	      0.00000000	      0.00000000
      7.88333333	    -29.19750093	     -3.19992855	      7.52290129	     -0.30411866	      1.19453209	      0.04210681	     74.68372797	    -10.07692544	     -3.51869316	     50.97859050	      0.88974425	    -18.60975346	    -32.15351072	      0.00000000	     78.15291649	     -3.23836745	      7.45025278	     90.18501012	      1.57402536	     -2.35484975	    -10.80891554	      0.00000000	    -46.76034754	     11.49340706	     -3.11713470	     89.87626748	     -6.31809242	     13.28831323	     34.52897790	     86.63750964	      0.00000000	      0.00000000	     89.92117574	    -10.22217427	     25.23069702	     28.37812507	     76.31463336	      0.00000000	      0.00000000
      7.89166667	    -29.02024266	     -2.72480263	      7.84013571	     -0.30375716	      1.19469568	      0.04164943	     72.90124286	    -10.55931205	     -3.97722466	     48.55614518	      0.84746461	    -20.27631118	    -31.61464839	      0.00000000	     79.25819656	     -2.73996252	      7.10523870	     92.28528865	      1.61068214	     -1.75242405	    -10.97731662	      0.00000000	    -46.89681580	     11.22250898	     -3.72656920	     89.87393315	     -6.31155823	     13.22764782	     34.37823777	     86.61130240	      0.00000000	      0.00000000	     89.92238931	    -10.31515941	     25.38111918	     28.59216825	     76.36417627	      0.00000000	      0.00000000
